<svg width="901" height="582" viewBox="0 0 901 582" fill="none" xmlns="http://www.w3.org/2000/svg">
<rect width="900" height="580.6" transform="translate(0.784668 0.700195)" fill="white"/>
<path d="M168.113 181.377H337.113M373.513 218.877V361.477M337.113 400.577H168.113M131.613 364.077V217.877M286.813 267.677L348.813 205.777M286.613 307.977L349.013 370.277" stroke="#2C4942" stroke-width="3" stroke-miterlimit="10"/>
<path d="M157.398 207.195C171.652 192.94 171.652 169.83 157.397 155.576C143.143 141.322 120.033 141.322 105.779 155.577C91.5248 169.831 91.5252 192.942 105.78 207.195C120.034 221.449 143.144 221.449 157.398 207.195Z" stroke="#2C4942" stroke-width="5" stroke-miterlimit="10"/>
<path d="M131.713 192.677V171.677L125.513 175.277V172.077L132.513 167.777H135.013V192.777H131.713V192.677Z" fill="#2C4942"/>
<path d="M399.309 207.225C413.562 192.971 413.562 169.86 399.308 155.606C385.053 141.352 361.943 141.353 347.689 155.607C333.435 169.862 333.435 192.972 347.69 207.226C361.944 221.48 385.055 221.479 399.309 207.225Z" stroke="#2C4942" stroke-width="5" stroke-miterlimit="10"/>
<path d="M382.812 192.677H365.312V190.577L373.712 182.277C376.412 179.577 377.913 177.777 377.913 175.077C377.913 172.377 376.113 170.477 373.312 170.477C370.512 170.477 368.712 172.477 368.712 175.377V176.977H365.413V175.377C365.413 170.777 368.412 167.477 373.312 167.477C378.312 167.477 381.312 170.777 381.312 175.177C381.312 179.177 378.913 181.577 375.913 184.577L370.613 189.677H382.712V192.677H382.812Z" fill="#2C4942"/>
<path d="M266.59 320.881C285.214 313.167 294.058 291.816 286.343 273.192C278.629 254.568 257.278 245.724 238.654 253.438C220.03 261.152 211.186 282.504 218.9 301.128C226.614 319.752 247.966 328.596 266.59 320.881Z" stroke="#2C4942" stroke-width="5" stroke-miterlimit="10"/>
<path d="M257.913 291.477C257.913 288.677 256.013 287.177 252.813 287.177H248.413V284.077H252.913C255.513 284.077 257.113 282.677 257.113 280.177C257.113 277.677 255.113 276.277 252.313 276.277C249.413 276.277 247.913 277.977 247.613 279.977H244.213C244.413 276.777 246.913 273.177 252.313 273.177C257.513 273.177 260.513 276.077 260.513 279.977C260.513 283.077 258.513 284.777 257.013 285.377C258.913 285.877 261.313 287.677 261.313 291.677C261.313 295.977 258.013 298.877 252.413 298.877C246.513 298.877 243.913 295.277 243.613 291.877H247.013C247.413 293.777 249.013 295.777 252.413 295.777C255.713 295.777 257.913 294.177 257.913 291.477Z" fill="#2C4942"/>
<path d="M157.398 426.392C171.652 412.138 171.651 389.027 157.397 374.773C143.143 360.52 120.032 360.52 105.778 374.774C91.5243 389.029 91.5247 412.139 105.779 426.393C120.033 440.647 143.144 440.647 157.398 426.392Z" stroke="#2C4942" stroke-width="5" stroke-miterlimit="10"/>
<path d="M124.213 400.877V386.977H139.513V390.077H127.513V397.277C128.513 396.277 130.113 395.477 132.513 395.477C136.813 395.477 140.413 398.377 140.413 403.677V404.077C140.413 408.877 136.913 412.277 131.713 412.277C126.013 412.277 123.313 408.777 123.013 404.977H126.313C126.513 406.577 127.813 409.177 131.713 409.177C134.913 409.177 137.113 407.077 137.113 404.077V403.677C137.113 400.477 134.913 398.577 131.713 398.577C128.613 398.577 127.413 400.377 127.013 400.877H124.213Z" fill="#2C4942"/>
<path d="M399.308 426.424C413.562 412.169 413.562 389.059 399.307 374.805C385.053 360.551 361.942 360.551 347.688 374.806C333.434 389.06 333.435 412.171 347.689 426.424C361.944 440.678 385.054 440.678 399.308 426.424Z" stroke="#2C4942" stroke-width="5" stroke-miterlimit="10"/>
<path d="M379.013 404.177V411.877H375.713V404.177H363.113V402.277L375.313 386.977H379.013V401.177H384.313V404.077H379.013V404.177ZM375.713 401.277V390.977L367.613 401.277H375.713Z" fill="#2C4942"/>
<rect x="632.499" y="164.228" width="41.1733" height="41.1733" stroke="#2C4942"/>
<path d="M655.775 236.401H652.865V218.401L647.585 221.461V218.701L653.615 215.011H655.775V236.401Z" fill="#2C4942"/>
<rect x="632.499" y="205.401" width="41.1733" height="41.1733" stroke="#2C4942"/>
<path d="M663.305 277.575H648.335V275.775L655.535 268.665C656.115 268.085 656.625 267.545 657.065 267.045C657.525 266.545 657.905 266.055 658.205 265.575C658.525 265.095 658.765 264.605 658.925 264.105C659.085 263.605 659.165 263.065 659.165 262.485C659.165 261.305 658.815 260.355 658.115 259.635C657.415 258.915 656.445 258.555 655.205 258.555C653.965 258.555 652.995 258.945 652.295 259.725C651.595 260.505 651.245 261.505 651.245 262.725V264.105H648.395V262.695C648.395 261.715 648.545 260.815 648.845 259.995C649.165 259.155 649.615 258.435 650.195 257.835C650.795 257.235 651.515 256.765 652.355 256.425C653.195 256.085 654.145 255.915 655.205 255.915C656.265 255.915 657.215 256.085 658.055 256.425C658.915 256.745 659.635 257.205 660.215 257.805C660.815 258.385 661.275 259.075 661.595 259.875C661.915 260.675 662.075 261.545 662.075 262.485C662.075 263.325 661.955 264.105 661.715 264.825C661.475 265.525 661.145 266.195 660.725 266.835C660.305 267.455 659.815 268.065 659.255 268.665C658.695 269.265 658.085 269.885 657.425 270.525L652.925 274.935H663.305V277.575Z" fill="#2C4942"/>
<rect x="632.499" y="246.575" width="41.1733" height="41.1733" stroke="#2C4942"/>
<path d="M663.305 318.748H648.335V316.948L655.535 309.838C656.115 309.258 656.625 308.718 657.065 308.218C657.525 307.718 657.905 307.228 658.205 306.748C658.525 306.268 658.765 305.778 658.925 305.278C659.085 304.778 659.165 304.238 659.165 303.658C659.165 302.478 658.815 301.528 658.115 300.808C657.415 300.088 656.445 299.728 655.205 299.728C653.965 299.728 652.995 300.118 652.295 300.898C651.595 301.678 651.245 302.678 651.245 303.898V305.278H648.395V303.868C648.395 302.888 648.545 301.988 648.845 301.168C649.165 300.328 649.615 299.608 650.195 299.008C650.795 298.408 651.515 297.938 652.355 297.598C653.195 297.258 654.145 297.088 655.205 297.088C656.265 297.088 657.215 297.258 658.055 297.598C658.915 297.918 659.635 298.378 660.215 298.978C660.815 299.558 661.275 300.248 661.595 301.048C661.915 301.848 662.075 302.718 662.075 303.658C662.075 304.498 661.955 305.278 661.715 305.998C661.475 306.698 661.145 307.368 660.725 308.008C660.305 308.628 659.815 309.238 659.255 309.838C658.695 310.438 658.085 311.058 657.425 311.698L652.925 316.108H663.305V318.748Z" fill="#2C4942"/>
<rect x="632.499" y="287.748" width="41.1733" height="41.1733" stroke="#2C4942"/>
<path d="M663.185 354.101C663.185 355.021 663.015 355.861 662.675 356.621C662.335 357.381 661.835 358.031 661.175 358.571C660.535 359.111 659.745 359.531 658.805 359.831C657.865 360.131 656.795 360.281 655.595 360.281C654.335 360.281 653.245 360.111 652.325 359.771C651.405 359.411 650.635 358.951 650.015 358.391C649.395 357.811 648.925 357.161 648.605 356.441C648.285 355.721 648.095 355.001 648.035 354.281H650.945C651.025 354.701 651.175 355.111 651.395 355.511C651.615 355.911 651.915 356.271 652.295 356.591C652.675 356.891 653.135 357.141 653.675 357.341C654.235 357.541 654.875 357.641 655.595 357.641C657.015 357.641 658.145 357.321 658.985 356.681C659.825 356.021 660.245 355.101 660.245 353.921C660.245 352.721 659.865 351.811 659.105 351.191C658.345 350.551 657.275 350.231 655.895 350.231H652.145V347.591H655.985C657.125 347.591 658.015 347.301 658.655 346.721C659.295 346.141 659.615 345.311 659.615 344.231C659.615 343.171 659.235 342.351 658.475 341.771C657.715 341.171 656.735 340.871 655.535 340.871C654.275 340.871 653.325 341.181 652.685 341.801C652.045 342.421 651.645 343.181 651.485 344.081H648.605C648.645 343.401 648.805 342.721 649.085 342.041C649.385 341.341 649.815 340.711 650.375 340.151C650.935 339.591 651.635 339.141 652.475 338.801C653.335 338.441 654.345 338.261 655.505 338.261C656.625 338.261 657.615 338.411 658.475 338.711C659.355 338.991 660.085 339.391 660.665 339.911C661.265 340.431 661.715 341.051 662.015 341.771C662.335 342.491 662.495 343.271 662.495 344.111C662.495 344.771 662.395 345.361 662.195 345.881C662.015 346.381 661.775 346.821 661.475 347.201C661.195 347.581 660.875 347.901 660.515 348.161C660.175 348.401 659.845 348.591 659.525 348.731C659.925 348.851 660.335 349.041 660.755 349.301C661.195 349.541 661.595 349.881 661.955 350.321C662.315 350.761 662.605 351.291 662.825 351.911C663.065 352.531 663.185 353.261 663.185 354.101Z" fill="#2C4942"/>
<rect x="632.499" y="328.921" width="41.1733" height="41.1733" stroke="#2C4942"/>
<path d="M661.055 394.525V401.095H658.235V394.525H647.435V392.935L657.875 379.795H661.055V392.005H665.585V394.525H661.055ZM658.235 392.005V383.155L651.275 392.005H658.235Z" fill="#2C4942"/>
<rect x="632.499" y="370.095" width="41.1733" height="41.1733" stroke="#2C4942"/>
<path d="M704.479 195.228H689.509V193.428L696.709 186.318C697.289 185.738 697.799 185.198 698.239 184.698C698.699 184.198 699.079 183.708 699.379 183.228C699.699 182.748 699.939 182.258 700.099 181.758C700.259 181.258 700.339 180.718 700.339 180.138C700.339 178.958 699.989 178.008 699.289 177.288C698.589 176.568 697.619 176.208 696.379 176.208C695.139 176.208 694.169 176.598 693.469 177.378C692.769 178.158 692.419 179.158 692.419 180.378V181.758H689.569V180.348C689.569 179.368 689.719 178.468 690.019 177.648C690.339 176.808 690.789 176.088 691.369 175.488C691.969 174.888 692.689 174.418 693.529 174.078C694.369 173.738 695.319 173.568 696.379 173.568C697.439 173.568 698.389 173.738 699.229 174.078C700.089 174.398 700.809 174.858 701.389 175.458C701.989 176.038 702.449 176.728 702.769 177.528C703.089 178.328 703.249 179.198 703.249 180.138C703.249 180.978 703.129 181.758 702.889 182.478C702.649 183.178 702.319 183.848 701.899 184.488C701.479 185.108 700.989 185.718 700.429 186.318C699.869 186.918 699.259 187.538 698.599 188.178L694.099 192.588H704.479V195.228Z" fill="#2C4942"/>
<path d="M655.775 195.228H652.865V177.228L647.585 180.288V177.528L653.615 173.838H655.775V195.228Z" fill="#2C4942"/>
<rect x="673.672" y="164.228" width="41.1733" height="41.1733" stroke="#2C4942"/>
<path d="M687.523 215.101H700.603V217.741H690.283V223.921C690.703 223.501 691.263 223.141 691.963 222.841C692.683 222.521 693.563 222.361 694.603 222.361C695.523 222.361 696.393 222.521 697.213 222.841C698.033 223.141 698.753 223.591 699.373 224.191C699.993 224.791 700.483 225.531 700.843 226.411C701.223 227.271 701.413 228.261 701.413 229.381V229.711C701.413 230.751 701.233 231.701 700.873 232.561C700.513 233.421 700.003 234.161 699.343 234.781C698.703 235.401 697.923 235.891 697.003 236.251C696.083 236.591 695.063 236.761 693.943 236.761C692.723 236.761 691.653 236.591 690.733 236.251C689.833 235.891 689.073 235.431 688.453 234.871C687.853 234.291 687.383 233.631 687.043 232.891C686.723 232.131 686.533 231.341 686.473 230.521H689.323C689.383 230.881 689.493 231.271 689.653 231.691C689.833 232.111 690.103 232.501 690.463 232.861C690.823 233.221 691.283 233.521 691.843 233.761C692.423 234.001 693.123 234.121 693.943 234.121C694.623 234.121 695.243 234.011 695.803 233.791C696.363 233.571 696.843 233.271 697.243 232.891C697.663 232.491 697.983 232.021 698.203 231.481C698.423 230.941 698.533 230.351 698.533 229.711V229.411C698.533 228.051 698.113 226.981 697.273 226.201C696.433 225.401 695.323 225.001 693.943 225.001C693.283 225.001 692.713 225.081 692.233 225.241C691.753 225.401 691.353 225.591 691.033 225.811C690.733 226.031 690.493 226.251 690.313 226.471C690.133 226.691 690.003 226.861 689.923 226.981H687.523V215.101Z" fill="#2C4942"/>
<rect x="673.672" y="205.401" width="41.1733" height="41.1733" stroke="#2C4942"/>
<path d="M701.121 271.755C701.121 272.675 700.951 273.515 700.611 274.275C700.271 275.035 699.771 275.685 699.111 276.225C698.471 276.765 697.681 277.185 696.741 277.485C695.801 277.785 694.731 277.935 693.531 277.935C692.271 277.935 691.181 277.765 690.261 277.425C689.341 277.065 688.571 276.605 687.951 276.045C687.331 275.465 686.861 274.815 686.541 274.095C686.221 273.375 686.031 272.655 685.971 271.935H688.881C688.961 272.355 689.111 272.765 689.331 273.165C689.551 273.565 689.851 273.925 690.231 274.245C690.611 274.545 691.071 274.795 691.611 274.995C692.171 275.195 692.811 275.295 693.531 275.295C694.951 275.295 696.081 274.975 696.921 274.335C697.761 273.675 698.181 272.755 698.181 271.575C698.181 270.375 697.801 269.465 697.041 268.845C696.281 268.205 695.211 267.885 693.831 267.885H690.081V265.245H693.921C695.061 265.245 695.951 264.955 696.591 264.375C697.231 263.795 697.551 262.965 697.551 261.885C697.551 260.825 697.171 260.005 696.411 259.425C695.651 258.825 694.671 258.525 693.471 258.525C692.211 258.525 691.261 258.835 690.621 259.455C689.981 260.075 689.581 260.835 689.421 261.735H686.541C686.581 261.055 686.741 260.375 687.021 259.695C687.321 258.995 687.751 258.365 688.311 257.805C688.871 257.245 689.571 256.795 690.411 256.455C691.271 256.095 692.281 255.915 693.441 255.915C694.561 255.915 695.551 256.065 696.411 256.365C697.291 256.645 698.021 257.045 698.601 257.565C699.201 258.085 699.651 258.705 699.951 259.425C700.271 260.145 700.431 260.925 700.431 261.765C700.431 262.425 700.331 263.015 700.131 263.535C699.951 264.035 699.711 264.475 699.411 264.855C699.131 265.235 698.811 265.555 698.451 265.815C698.111 266.055 697.781 266.245 697.461 266.385C697.861 266.505 698.271 266.695 698.691 266.955C699.131 267.195 699.531 267.535 699.891 267.975C700.251 268.415 700.541 268.945 700.761 269.565C701.001 270.185 701.121 270.915 701.121 271.755Z" fill="#2C4942"/>
<rect x="673.672" y="246.575" width="41.1733" height="41.1733" stroke="#2C4942"/>
<path d="M698.902 312.178V318.748H696.082V312.178H685.282V310.588L695.722 297.448H698.902V309.658H703.432V312.178H698.902ZM696.082 309.658V300.808L689.122 309.658H696.082Z" fill="#2C4942"/>
<rect x="673.672" y="287.748" width="41.1733" height="41.1733" stroke="#2C4942"/>
<path d="M699.13 353.351V359.921H696.31V353.351H685.51V351.761L695.95 338.621H699.13V350.831H703.66V353.351H699.13ZM696.31 350.831V341.981L689.35 350.831H696.31Z" fill="#2C4942"/>
<rect x="673.672" y="328.921" width="41.1733" height="41.1733" stroke="#2C4942"/>
<path d="M687.637 379.795H700.717V382.435H690.397V388.615C690.817 388.195 691.377 387.835 692.077 387.535C692.797 387.215 693.677 387.055 694.717 387.055C695.637 387.055 696.507 387.215 697.327 387.535C698.147 387.835 698.867 388.285 699.487 388.885C700.107 389.485 700.597 390.225 700.957 391.105C701.337 391.965 701.527 392.955 701.527 394.075V394.405C701.527 395.445 701.347 396.395 700.987 397.255C700.627 398.115 700.117 398.855 699.457 399.475C698.817 400.095 698.037 400.585 697.117 400.945C696.197 401.285 695.177 401.455 694.057 401.455C692.837 401.455 691.767 401.285 690.847 400.945C689.947 400.585 689.187 400.125 688.567 399.565C687.967 398.985 687.497 398.325 687.157 397.585C686.837 396.825 686.647 396.035 686.587 395.215H689.437C689.497 395.575 689.607 395.965 689.767 396.385C689.947 396.805 690.217 397.195 690.577 397.555C690.937 397.915 691.397 398.215 691.957 398.455C692.537 398.695 693.237 398.815 694.057 398.815C694.737 398.815 695.357 398.705 695.917 398.485C696.477 398.265 696.957 397.965 697.357 397.585C697.777 397.185 698.097 396.715 698.317 396.175C698.537 395.635 698.647 395.045 698.647 394.405V394.105C698.647 392.745 698.227 391.675 697.387 390.895C696.547 390.095 695.437 389.695 694.057 389.695C693.397 389.695 692.827 389.775 692.347 389.935C691.867 390.095 691.467 390.285 691.147 390.505C690.847 390.725 690.607 390.945 690.427 391.165C690.247 391.385 690.117 391.555 690.037 391.675H687.637V379.795Z" fill="#2C4942"/>
<rect x="673.672" y="370.095" width="41.1733" height="41.1733" stroke="#2C4942"/>
<rect x="633.499" y="165.228" width="80.3467" height="245.04" stroke="#2C4942" stroke-width="2"/>
</svg>
