<svg width="901" height="581" viewBox="0 0 901 581" fill="none" xmlns="http://www.w3.org/2000/svg">
<rect width="900" height="580.6" transform="translate(0.784668 0.148438)" fill="white"/>
<path d="M168.113 180.825H337.113M373.513 218.325V360.925M337.113 400.025H168.113M131.613 363.525V217.325M286.813 267.125L348.813 205.225M286.613 307.425L349.013 369.725" stroke="#2C4942" stroke-width="3" stroke-miterlimit="10"/>
<path d="M157.398 206.643C171.652 192.388 171.652 169.278 157.397 155.024C143.143 140.77 120.033 140.77 105.779 155.025C91.5248 169.279 91.5252 192.39 105.78 206.644C120.034 220.898 143.144 220.897 157.398 206.643Z" stroke="#2C4942" stroke-width="5" stroke-miterlimit="10"/>
<path d="M131.713 192.126V171.126L125.513 174.726V171.526L132.513 167.226H135.013V192.226H131.713V192.126Z" fill="#2C4942"/>
<path d="M399.309 206.673C413.562 192.419 413.562 169.308 399.308 155.054C385.053 140.801 361.943 140.801 347.689 155.055C333.435 169.31 333.435 192.42 347.69 206.674C361.944 220.928 385.055 220.928 399.309 206.673Z" stroke="#2C4942" stroke-width="5" stroke-miterlimit="10"/>
<path d="M382.812 192.126H365.312V190.026L373.712 181.726C376.412 179.026 377.913 177.226 377.913 174.526C377.913 171.826 376.113 169.926 373.312 169.926C370.512 169.926 368.712 171.926 368.712 174.826V176.426H365.413V174.826C365.413 170.226 368.412 166.926 373.312 166.926C378.312 166.926 381.312 170.226 381.312 174.626C381.312 178.626 378.913 181.026 375.913 184.026L370.613 189.126H382.712V192.126H382.812Z" fill="#2C4942"/>
<path d="M266.59 320.33C285.214 312.615 294.058 291.264 286.343 272.64C278.629 254.016 257.278 245.172 238.654 252.886C220.03 260.601 211.186 281.952 218.9 300.576C226.614 319.2 247.966 328.044 266.59 320.33Z" stroke="#2C4942" stroke-width="5" stroke-miterlimit="10"/>
<path d="M257.913 290.925C257.913 288.125 256.013 286.625 252.813 286.625H248.413V283.525H252.913C255.513 283.525 257.113 282.125 257.113 279.625C257.113 277.125 255.113 275.725 252.313 275.725C249.413 275.725 247.913 277.425 247.613 279.425H244.213C244.413 276.225 246.913 272.625 252.313 272.625C257.513 272.625 260.513 275.525 260.513 279.425C260.513 282.525 258.513 284.226 257.013 284.826C258.913 285.326 261.313 287.125 261.313 291.125C261.313 295.425 258.013 298.326 252.413 298.326C246.513 298.326 243.913 294.726 243.613 291.326H247.013C247.413 293.226 249.013 295.225 252.413 295.225C255.713 295.225 257.913 293.625 257.913 290.925Z" fill="#2C4942"/>
<path d="M157.398 425.841C171.652 411.586 171.651 388.476 157.397 374.222C143.143 359.968 120.032 359.968 105.778 374.223C91.5243 388.477 91.5247 411.588 105.779 425.841C120.033 440.095 143.144 440.095 157.398 425.841Z" stroke="#2C4942" stroke-width="5" stroke-miterlimit="10"/>
<path d="M124.213 400.326V386.426H139.513V389.526H127.513V396.726C128.513 395.726 130.113 394.926 132.513 394.926C136.813 394.926 140.413 397.826 140.413 403.126V403.526C140.413 408.326 136.913 411.726 131.713 411.726C126.013 411.726 123.313 408.226 123.013 404.426H126.313C126.513 406.026 127.813 408.626 131.713 408.626C134.913 408.626 137.113 406.526 137.113 403.526V403.126C137.113 399.926 134.913 398.026 131.713 398.026C128.613 398.026 127.413 399.826 127.013 400.326H124.213Z" fill="#2C4942"/>
<path d="M399.308 425.872C413.562 411.617 413.562 388.507 399.307 374.253C385.053 359.999 361.942 359.999 347.688 374.254C333.434 388.508 333.435 411.619 347.689 425.873C361.944 440.127 385.054 440.126 399.308 425.872Z" stroke="#2C4942" stroke-width="5" stroke-miterlimit="10"/>
<path d="M379.013 403.626V411.326H375.713V403.626H363.113V401.726L375.313 386.426H379.013V400.626H384.313V403.526H379.013V403.626ZM375.713 400.726V390.426L367.613 400.726H375.713Z" fill="#2C4942"/>
<rect x="570.739" y="165.919" width="41.1733" height="41.1733" stroke="#2C4942"/>
<path d="M594.016 238.093H591.106V220.093L585.826 223.153V220.393L591.856 216.703H594.016V238.093Z" fill="#2C4942"/>
<rect x="570.739" y="207.093" width="41.1733" height="41.1733" stroke="#2C4942"/>
<path d="M601.546 279.266H586.576V277.466L593.776 270.356C594.356 269.776 594.866 269.236 595.306 268.736C595.766 268.236 596.146 267.746 596.446 267.266C596.766 266.786 597.006 266.296 597.166 265.796C597.326 265.296 597.406 264.756 597.406 264.176C597.406 262.996 597.056 262.046 596.356 261.326C595.656 260.606 594.686 260.246 593.446 260.246C592.206 260.246 591.236 260.636 590.536 261.416C589.836 262.196 589.486 263.196 589.486 264.416V265.796H586.636V264.386C586.636 263.406 586.786 262.506 587.086 261.686C587.406 260.846 587.856 260.126 588.436 259.526C589.036 258.926 589.756 258.456 590.596 258.116C591.436 257.776 592.386 257.606 593.446 257.606C594.506 257.606 595.456 257.776 596.296 258.116C597.156 258.436 597.876 258.896 598.456 259.496C599.056 260.076 599.516 260.766 599.836 261.566C600.156 262.366 600.316 263.236 600.316 264.176C600.316 265.016 600.196 265.796 599.956 266.516C599.716 267.216 599.386 267.886 598.966 268.526C598.546 269.146 598.056 269.756 597.496 270.356C596.936 270.956 596.326 271.576 595.666 272.216L591.166 276.626H601.546V279.266Z" fill="#2C4942"/>
<rect x="570.739" y="248.266" width="41.1733" height="41.1733" stroke="#2C4942"/>
<path d="M601.426 314.619C601.426 315.539 601.256 316.379 600.916 317.139C600.576 317.899 600.076 318.549 599.416 319.089C598.776 319.629 597.986 320.049 597.046 320.349C596.106 320.649 595.036 320.799 593.836 320.799C592.576 320.799 591.486 320.629 590.566 320.289C589.646 319.929 588.876 319.469 588.256 318.909C587.636 318.329 587.166 317.679 586.846 316.959C586.526 316.239 586.336 315.519 586.276 314.799H589.186C589.266 315.219 589.416 315.629 589.636 316.029C589.856 316.429 590.156 316.789 590.536 317.109C590.916 317.409 591.376 317.659 591.916 317.859C592.476 318.059 593.116 318.159 593.836 318.159C595.256 318.159 596.386 317.839 597.226 317.199C598.066 316.539 598.486 315.619 598.486 314.439C598.486 313.239 598.106 312.329 597.346 311.709C596.586 311.069 595.516 310.749 594.136 310.749H590.386V308.109H594.226C595.366 308.109 596.256 307.819 596.896 307.239C597.536 306.659 597.856 305.829 597.856 304.749C597.856 303.689 597.476 302.869 596.716 302.289C595.956 301.689 594.976 301.389 593.776 301.389C592.516 301.389 591.566 301.699 590.926 302.319C590.286 302.939 589.886 303.699 589.726 304.599H586.846C586.886 303.919 587.046 303.239 587.326 302.559C587.626 301.859 588.056 301.229 588.616 300.669C589.176 300.109 589.876 299.659 590.716 299.319C591.576 298.959 592.586 298.779 593.746 298.779C594.866 298.779 595.856 298.929 596.716 299.229C597.596 299.509 598.326 299.909 598.906 300.429C599.506 300.949 599.956 301.569 600.256 302.289C600.576 303.009 600.736 303.789 600.736 304.629C600.736 305.289 600.636 305.879 600.436 306.399C600.256 306.899 600.016 307.339 599.716 307.719C599.436 308.099 599.116 308.419 598.756 308.679C598.416 308.919 598.086 309.109 597.766 309.249C598.166 309.369 598.576 309.559 598.996 309.819C599.436 310.059 599.836 310.399 600.196 310.839C600.556 311.279 600.846 311.809 601.066 312.429C601.306 313.049 601.426 313.779 601.426 314.619Z" fill="#2C4942"/>
<rect x="570.739" y="289.439" width="41.1733" height="41.1733" stroke="#2C4942"/>
<path d="M599.296 355.043V361.613H596.476V355.043H585.676V353.453L596.116 340.313H599.296V352.523H603.826V355.043H599.296ZM596.476 352.523V343.673L589.516 352.523H596.476Z" fill="#2C4942"/>
<rect x="570.739" y="330.613" width="41.1733" height="41.1733" stroke="#2C4942"/>
<path d="M587.746 381.486H600.826V384.126H590.506V390.306C590.926 389.886 591.486 389.526 592.186 389.226C592.906 388.906 593.786 388.746 594.826 388.746C595.746 388.746 596.616 388.906 597.436 389.226C598.256 389.526 598.976 389.976 599.596 390.576C600.216 391.176 600.706 391.916 601.066 392.796C601.446 393.656 601.636 394.646 601.636 395.766V396.096C601.636 397.136 601.456 398.086 601.096 398.946C600.736 399.806 600.226 400.546 599.566 401.166C598.926 401.786 598.146 402.276 597.226 402.636C596.306 402.976 595.286 403.146 594.166 403.146C592.946 403.146 591.876 402.976 590.956 402.636C590.056 402.276 589.296 401.816 588.676 401.256C588.076 400.676 587.606 400.016 587.266 399.276C586.946 398.516 586.756 397.726 586.696 396.906H589.546C589.606 397.266 589.716 397.656 589.876 398.076C590.056 398.496 590.326 398.886 590.686 399.246C591.046 399.606 591.506 399.906 592.066 400.146C592.646 400.386 593.346 400.506 594.166 400.506C594.846 400.506 595.466 400.396 596.026 400.176C596.586 399.956 597.066 399.656 597.466 399.276C597.886 398.876 598.206 398.406 598.426 397.866C598.646 397.326 598.756 396.736 598.756 396.096V395.796C598.756 394.436 598.336 393.366 597.496 392.586C596.656 391.786 595.546 391.386 594.166 391.386C593.506 391.386 592.936 391.466 592.456 391.626C591.976 391.786 591.576 391.976 591.256 392.196C590.956 392.416 590.716 392.636 590.536 392.856C590.356 393.076 590.226 393.246 590.146 393.366H587.746V381.486Z" fill="#2C4942"/>
<rect x="570.739" y="371.786" width="41.1733" height="41.1733" stroke="#2C4942"/>
<path d="M681.392 196.919H666.422V195.119L673.622 188.009C674.202 187.429 674.712 186.889 675.152 186.389C675.612 185.889 675.992 185.399 676.292 184.919C676.612 184.439 676.852 183.949 677.012 183.449C677.172 182.949 677.252 182.409 677.252 181.829C677.252 180.649 676.902 179.699 676.202 178.979C675.502 178.259 674.532 177.899 673.292 177.899C672.052 177.899 671.082 178.289 670.382 179.069C669.682 179.849 669.332 180.849 669.332 182.069V183.449H666.482V182.039C666.482 181.059 666.632 180.159 666.932 179.339C667.252 178.499 667.702 177.779 668.282 177.179C668.882 176.579 669.602 176.109 670.442 175.769C671.282 175.429 672.232 175.259 673.292 175.259C674.352 175.259 675.302 175.429 676.142 175.769C677.002 176.089 677.722 176.549 678.302 177.149C678.902 177.729 679.362 178.419 679.682 179.219C680.002 180.019 680.162 180.889 680.162 181.829C680.162 182.669 680.042 183.449 679.802 184.169C679.562 184.869 679.232 185.539 678.812 186.179C678.392 186.799 677.902 187.409 677.342 188.009C676.782 188.609 676.172 189.229 675.512 189.869L671.012 194.279H681.392V196.919Z" fill="#2C4942"/>
<rect x="653.085" y="165.919" width="41.1733" height="41.1733" stroke="#2C4942"/>
<path d="M676.362 238.093H673.452V220.093L668.172 223.153V220.393L674.202 216.703H676.362V238.093Z" fill="#2C4942"/>
<rect x="653.085" y="207.093" width="41.1733" height="41.1733" stroke="#2C4942"/>
<path d="M673.667 257.606C674.787 257.606 675.807 257.786 676.727 258.146C677.647 258.486 678.427 258.996 679.067 259.676C679.727 260.336 680.227 261.146 680.567 262.106C680.927 263.066 681.107 264.156 681.107 265.376V271.856C681.107 273.136 680.927 274.266 680.567 275.246C680.207 276.206 679.697 277.016 679.037 277.676C678.377 278.316 677.587 278.806 676.667 279.146C675.767 279.466 674.767 279.626 673.667 279.626C672.567 279.626 671.557 279.466 670.637 279.146C669.737 278.806 668.957 278.316 668.297 277.676C667.637 277.016 667.127 276.206 666.767 275.246C666.407 274.266 666.227 273.136 666.227 271.856V265.376C666.227 264.156 666.397 263.066 666.737 262.106C667.097 261.146 667.597 260.336 668.237 259.676C668.897 258.996 669.687 258.486 670.607 258.146C671.527 257.786 672.547 257.606 673.667 257.606ZM673.667 276.986C674.427 276.986 675.087 276.856 675.647 276.596C676.227 276.336 676.707 275.976 677.087 275.516C677.467 275.056 677.747 274.516 677.927 273.896C678.127 273.256 678.227 272.566 678.227 271.826V265.406C678.227 264.666 678.127 263.986 677.927 263.366C677.747 262.726 677.467 262.176 677.087 261.716C676.707 261.256 676.227 260.896 675.647 260.636C675.087 260.376 674.427 260.246 673.667 260.246C672.907 260.246 672.237 260.376 671.657 260.636C671.097 260.896 670.627 261.256 670.247 261.716C669.867 262.176 669.577 262.726 669.377 263.366C669.197 263.986 669.107 264.666 669.107 265.406V271.826C669.107 272.566 669.197 273.256 669.377 273.896C669.577 274.516 669.867 275.056 670.247 275.516C670.627 275.976 671.097 276.336 671.657 276.596C672.237 276.856 672.907 276.986 673.667 276.986Z" fill="#2C4942"/>
<rect x="653.085" y="248.266" width="41.1733" height="41.1733" stroke="#2C4942"/>
<path d="M676.183 320.439H673.273V302.439L667.993 305.499V302.739L674.023 299.049H676.183V320.439Z" fill="#2C4942"/>
<rect x="653.085" y="289.439" width="41.1733" height="41.1733" stroke="#2C4942"/>
<path d="M676.183 361.613H673.273V343.613L667.993 346.673V343.913L674.023 340.223H676.183V361.613Z" fill="#2C4942"/>
<rect x="653.085" y="330.613" width="41.1733" height="41.1733" stroke="#2C4942"/>
<path d="M673.667 381.126C674.787 381.126 675.807 381.306 676.727 381.666C677.647 382.006 678.427 382.516 679.067 383.196C679.727 383.856 680.227 384.666 680.567 385.626C680.927 386.586 681.107 387.676 681.107 388.896V395.376C681.107 396.656 680.927 397.786 680.567 398.766C680.207 399.726 679.697 400.536 679.037 401.196C678.377 401.836 677.587 402.326 676.667 402.666C675.767 402.986 674.767 403.146 673.667 403.146C672.567 403.146 671.557 402.986 670.637 402.666C669.737 402.326 668.957 401.836 668.297 401.196C667.637 400.536 667.127 399.726 666.767 398.766C666.407 397.786 666.227 396.656 666.227 395.376V388.896C666.227 387.676 666.397 386.586 666.737 385.626C667.097 384.666 667.597 383.856 668.237 383.196C668.897 382.516 669.687 382.006 670.607 381.666C671.527 381.306 672.547 381.126 673.667 381.126ZM673.667 400.506C674.427 400.506 675.087 400.376 675.647 400.116C676.227 399.856 676.707 399.496 677.087 399.036C677.467 398.576 677.747 398.036 677.927 397.416C678.127 396.776 678.227 396.086 678.227 395.346V388.926C678.227 388.186 678.127 387.506 677.927 386.886C677.747 386.246 677.467 385.696 677.087 385.236C676.707 384.776 676.227 384.416 675.647 384.156C675.087 383.896 674.427 383.766 673.667 383.766C672.907 383.766 672.237 383.896 671.657 384.156C671.097 384.416 670.627 384.776 670.247 385.236C669.867 385.696 669.577 386.246 669.377 386.886C669.197 387.506 669.107 388.186 669.107 388.926V395.346C669.107 396.086 669.197 396.776 669.377 397.416C669.577 398.036 669.867 398.576 670.247 399.036C670.627 399.496 671.097 399.856 671.657 400.116C672.237 400.376 672.907 400.506 673.667 400.506Z" fill="#2C4942"/>
<rect x="653.085" y="371.786" width="41.1733" height="41.1733" stroke="#2C4942"/>
<path d="M760.488 190.349V196.919H757.668V190.349H746.868V188.759L757.308 175.619H760.488V187.829H765.018V190.349H760.488ZM757.668 187.829V178.979L750.708 187.829H757.668Z" fill="#2C4942"/>
<rect x="735.432" y="165.919" width="41.1733" height="41.1733" stroke="#2C4942"/>
<path d="M756.012 216.433C757.132 216.433 758.152 216.613 759.072 216.973C759.992 217.313 760.772 217.823 761.412 218.503C762.072 219.163 762.572 219.973 762.912 220.933C763.272 221.893 763.452 222.983 763.452 224.203V230.683C763.452 231.963 763.272 233.093 762.912 234.073C762.552 235.033 762.042 235.843 761.382 236.503C760.722 237.143 759.932 237.633 759.012 237.973C758.112 238.293 757.112 238.453 756.012 238.453C754.912 238.453 753.902 238.293 752.982 237.973C752.082 237.633 751.302 237.143 750.642 236.503C749.982 235.843 749.472 235.033 749.112 234.073C748.752 233.093 748.572 231.963 748.572 230.683V224.203C748.572 222.983 748.742 221.893 749.082 220.933C749.442 219.973 749.942 219.163 750.582 218.503C751.242 217.823 752.032 217.313 752.952 216.973C753.872 216.613 754.892 216.433 756.012 216.433ZM756.012 235.813C756.772 235.813 757.432 235.683 757.992 235.423C758.572 235.163 759.052 234.803 759.432 234.343C759.812 233.883 760.092 233.343 760.272 232.723C760.472 232.083 760.572 231.393 760.572 230.653V224.233C760.572 223.493 760.472 222.813 760.272 222.193C760.092 221.553 759.812 221.003 759.432 220.543C759.052 220.083 758.572 219.723 757.992 219.463C757.432 219.203 756.772 219.073 756.012 219.073C755.252 219.073 754.582 219.203 754.002 219.463C753.442 219.723 752.972 220.083 752.592 220.543C752.212 221.003 751.922 221.553 751.722 222.193C751.542 222.813 751.452 223.493 751.452 224.233V230.653C751.452 231.393 751.542 232.083 751.722 232.723C751.922 233.343 752.212 233.883 752.592 234.343C752.972 234.803 753.442 235.163 754.002 235.423C754.582 235.683 755.252 235.813 756.012 235.813Z" fill="#2C4942"/>
<rect x="735.432" y="207.093" width="41.1733" height="41.1733" stroke="#2C4942"/>
<path d="M758.709 279.266H755.799V261.266L750.519 264.326V261.566L756.549 257.876H758.709V279.266Z" fill="#2C4942"/>
<rect x="735.432" y="248.266" width="41.1733" height="41.1733" stroke="#2C4942"/>
<path d="M758.709 320.439H755.799V302.439L750.519 305.499V302.739L756.549 299.049H758.709V320.439Z" fill="#2C4942"/>
<rect x="735.432" y="289.439" width="41.1733" height="41.1733" stroke="#2C4942"/>
<path d="M756.012 339.953C757.132 339.953 758.152 340.133 759.072 340.493C759.992 340.833 760.772 341.343 761.412 342.023C762.072 342.683 762.572 343.493 762.912 344.453C763.272 345.413 763.452 346.503 763.452 347.723V354.203C763.452 355.483 763.272 356.613 762.912 357.593C762.552 358.553 762.042 359.363 761.382 360.023C760.722 360.663 759.932 361.153 759.012 361.493C758.112 361.813 757.112 361.973 756.012 361.973C754.912 361.973 753.902 361.813 752.982 361.493C752.082 361.153 751.302 360.663 750.642 360.023C749.982 359.363 749.472 358.553 749.112 357.593C748.752 356.613 748.572 355.483 748.572 354.203V347.723C748.572 346.503 748.742 345.413 749.082 344.453C749.442 343.493 749.942 342.683 750.582 342.023C751.242 341.343 752.032 340.833 752.952 340.493C753.872 340.133 754.892 339.953 756.012 339.953ZM756.012 359.333C756.772 359.333 757.432 359.203 757.992 358.943C758.572 358.683 759.052 358.323 759.432 357.863C759.812 357.403 760.092 356.863 760.272 356.243C760.472 355.603 760.572 354.913 760.572 354.173V347.753C760.572 347.013 760.472 346.333 760.272 345.713C760.092 345.073 759.812 344.523 759.432 344.063C759.052 343.603 758.572 343.243 757.992 342.983C757.432 342.723 756.772 342.593 756.012 342.593C755.252 342.593 754.582 342.723 754.002 342.983C753.442 343.243 752.972 343.603 752.592 344.063C752.212 344.523 751.922 345.073 751.722 345.713C751.542 346.333 751.452 347.013 751.452 347.753V354.173C751.452 354.913 751.542 355.603 751.722 356.243C751.922 356.863 752.212 357.403 752.592 357.863C752.972 358.323 753.442 358.683 754.002 358.943C754.582 359.203 755.252 359.333 756.012 359.333Z" fill="#2C4942"/>
<rect x="735.432" y="330.613" width="41.1733" height="41.1733" stroke="#2C4942"/>
<path d="M758.529 402.786H755.619V384.786L750.339 387.846V385.086L756.369 381.396H758.529V402.786Z" fill="#2C4942"/>
<rect x="735.432" y="371.786" width="41.1733" height="41.1733" stroke="#2C4942"/>
<path d="M635.189 196.919H632.279V178.919L626.999 181.979V179.219L633.029 175.529H635.189V196.919Z" fill="#2C4942"/>
<path d="M586.846 186.776H596.686V189.356H586.846V186.776Z" fill="#2C4942"/>
<rect x="611.912" y="165.919" width="41.1733" height="41.1733" stroke="#2C4942"/>
<path d="M632.608 216.433C633.728 216.433 634.748 216.613 635.668 216.973C636.588 217.313 637.368 217.823 638.008 218.503C638.668 219.163 639.168 219.973 639.508 220.933C639.868 221.893 640.048 222.983 640.048 224.203V230.683C640.048 231.963 639.868 233.093 639.508 234.073C639.148 235.033 638.638 235.843 637.978 236.503C637.318 237.143 636.528 237.633 635.608 237.973C634.708 238.293 633.708 238.453 632.608 238.453C631.508 238.453 630.498 238.293 629.578 237.973C628.678 237.633 627.898 237.143 627.238 236.503C626.578 235.843 626.068 235.033 625.708 234.073C625.348 233.093 625.168 231.963 625.168 230.683V224.203C625.168 222.983 625.338 221.893 625.678 220.933C626.038 219.973 626.538 219.163 627.178 218.503C627.838 217.823 628.628 217.313 629.548 216.973C630.468 216.613 631.488 216.433 632.608 216.433ZM632.608 235.813C633.368 235.813 634.028 235.683 634.588 235.423C635.168 235.163 635.648 234.803 636.028 234.343C636.408 233.883 636.688 233.343 636.868 232.723C637.068 232.083 637.168 231.393 637.168 230.653V224.233C637.168 223.493 637.068 222.813 636.868 222.193C636.688 221.553 636.408 221.003 636.028 220.543C635.648 220.083 635.168 219.723 634.588 219.463C634.028 219.203 633.368 219.073 632.608 219.073C631.848 219.073 631.178 219.203 630.598 219.463C630.038 219.723 629.568 220.083 629.188 220.543C628.808 221.003 628.518 221.553 628.318 222.193C628.138 222.813 628.048 223.493 628.048 224.233V230.653C628.048 231.393 628.138 232.083 628.318 232.723C628.518 233.343 628.808 233.883 629.188 234.343C629.568 234.803 630.038 235.163 630.598 235.423C631.178 235.683 631.848 235.813 632.608 235.813Z" fill="#2C4942"/>
<rect x="611.912" y="207.093" width="41.1733" height="41.1733" stroke="#2C4942"/>
<path d="M634.895 279.266H631.985V261.266L626.705 264.326V261.566L632.735 257.876H634.895V279.266Z" fill="#2C4942"/>
<rect x="611.912" y="248.266" width="41.1733" height="41.1733" stroke="#2C4942"/>
<path d="M632.493 298.779C633.613 298.779 634.633 298.959 635.553 299.319C636.473 299.659 637.253 300.169 637.893 300.849C638.553 301.509 639.053 302.319 639.393 303.279C639.753 304.239 639.933 305.329 639.933 306.549V313.029C639.933 314.309 639.753 315.439 639.393 316.419C639.033 317.379 638.523 318.189 637.863 318.849C637.203 319.489 636.413 319.979 635.493 320.319C634.593 320.639 633.593 320.799 632.493 320.799C631.393 320.799 630.383 320.639 629.463 320.319C628.563 319.979 627.783 319.489 627.123 318.849C626.463 318.189 625.953 317.379 625.593 316.419C625.233 315.439 625.053 314.309 625.053 313.029V306.549C625.053 305.329 625.223 304.239 625.563 303.279C625.923 302.319 626.423 301.509 627.063 300.849C627.723 300.169 628.513 299.659 629.433 299.319C630.353 298.959 631.373 298.779 632.493 298.779ZM632.493 318.159C633.253 318.159 633.913 318.029 634.473 317.769C635.053 317.509 635.533 317.149 635.913 316.689C636.293 316.229 636.573 315.689 636.753 315.069C636.953 314.429 637.053 313.739 637.053 312.999V306.579C637.053 305.839 636.953 305.159 636.753 304.539C636.573 303.899 636.293 303.349 635.913 302.889C635.533 302.429 635.053 302.069 634.473 301.809C633.913 301.549 633.253 301.419 632.493 301.419C631.733 301.419 631.063 301.549 630.483 301.809C629.923 302.069 629.453 302.429 629.073 302.889C628.693 303.349 628.403 303.899 628.203 304.539C628.023 305.159 627.933 305.839 627.933 306.579V312.999C627.933 313.739 628.023 314.429 628.203 315.069C628.403 315.689 628.693 316.229 629.073 316.689C629.453 317.149 629.923 317.509 630.483 317.769C631.063 318.029 631.733 318.159 632.493 318.159Z" fill="#2C4942"/>
<rect x="611.912" y="289.439" width="41.1733" height="41.1733" stroke="#2C4942"/>
<path d="M632.722 339.953C633.842 339.953 634.862 340.133 635.782 340.493C636.702 340.833 637.482 341.343 638.122 342.023C638.782 342.683 639.282 343.493 639.622 344.453C639.982 345.413 640.162 346.503 640.162 347.723V354.203C640.162 355.483 639.982 356.613 639.622 357.593C639.262 358.553 638.752 359.363 638.092 360.023C637.432 360.663 636.642 361.153 635.722 361.493C634.822 361.813 633.822 361.973 632.722 361.973C631.622 361.973 630.612 361.813 629.692 361.493C628.792 361.153 628.012 360.663 627.352 360.023C626.692 359.363 626.182 358.553 625.822 357.593C625.462 356.613 625.282 355.483 625.282 354.203V347.723C625.282 346.503 625.452 345.413 625.792 344.453C626.152 343.493 626.652 342.683 627.292 342.023C627.952 341.343 628.742 340.833 629.662 340.493C630.582 340.133 631.602 339.953 632.722 339.953ZM632.722 359.333C633.482 359.333 634.142 359.203 634.702 358.943C635.282 358.683 635.762 358.323 636.142 357.863C636.522 357.403 636.802 356.863 636.982 356.243C637.182 355.603 637.282 354.913 637.282 354.173V347.753C637.282 347.013 637.182 346.333 636.982 345.713C636.802 345.073 636.522 344.523 636.142 344.063C635.762 343.603 635.282 343.243 634.702 342.983C634.142 342.723 633.482 342.593 632.722 342.593C631.962 342.593 631.292 342.723 630.712 342.983C630.152 343.243 629.682 343.603 629.302 344.063C628.922 344.523 628.632 345.073 628.432 345.713C628.252 346.333 628.162 347.013 628.162 347.753V354.173C628.162 354.913 628.252 355.603 628.432 356.243C628.632 356.863 628.922 357.403 629.302 357.863C629.682 358.323 630.152 358.683 630.712 358.943C631.292 359.203 631.962 359.333 632.722 359.333Z" fill="#2C4942"/>
<rect x="611.912" y="330.613" width="41.1733" height="41.1733" stroke="#2C4942"/>
<path d="M635.189 402.786H632.279V384.786L626.999 387.846V385.086L633.029 381.396H635.189V402.786Z" fill="#2C4942"/>
<rect x="611.912" y="371.786" width="41.1733" height="41.1733" stroke="#2C4942"/>
<path d="M722.446 191.099C722.446 192.019 722.276 192.859 721.936 193.619C721.596 194.379 721.096 195.029 720.436 195.569C719.796 196.109 719.006 196.529 718.066 196.829C717.126 197.129 716.056 197.279 714.856 197.279C713.596 197.279 712.506 197.109 711.586 196.769C710.666 196.409 709.896 195.949 709.276 195.389C708.656 194.809 708.186 194.159 707.866 193.439C707.546 192.719 707.356 191.999 707.296 191.279H710.206C710.286 191.699 710.436 192.109 710.656 192.509C710.876 192.909 711.176 193.269 711.556 193.589C711.936 193.889 712.396 194.139 712.936 194.339C713.496 194.539 714.136 194.639 714.856 194.639C716.276 194.639 717.406 194.319 718.246 193.679C719.086 193.019 719.506 192.099 719.506 190.919C719.506 189.719 719.126 188.809 718.366 188.189C717.606 187.549 716.536 187.229 715.156 187.229H711.406V184.589H715.246C716.386 184.589 717.276 184.299 717.916 183.719C718.556 183.139 718.876 182.309 718.876 181.229C718.876 180.169 718.496 179.349 717.736 178.769C716.976 178.169 715.996 177.869 714.796 177.869C713.536 177.869 712.586 178.179 711.946 178.799C711.306 179.419 710.906 180.179 710.746 181.079H707.866C707.906 180.399 708.066 179.719 708.346 179.039C708.646 178.339 709.076 177.709 709.636 177.149C710.196 176.589 710.896 176.139 711.736 175.799C712.596 175.439 713.606 175.259 714.766 175.259C715.886 175.259 716.876 175.409 717.736 175.709C718.616 175.989 719.346 176.389 719.926 176.909C720.526 177.429 720.976 178.049 721.276 178.769C721.596 179.489 721.756 180.269 721.756 181.109C721.756 181.769 721.656 182.359 721.456 182.879C721.276 183.379 721.036 183.819 720.736 184.199C720.456 184.579 720.136 184.899 719.776 185.159C719.436 185.399 719.106 185.589 718.786 185.729C719.186 185.849 719.596 186.039 720.016 186.299C720.456 186.539 720.856 186.879 721.216 187.319C721.576 187.759 721.866 188.289 722.086 188.909C722.326 189.529 722.446 190.259 722.446 191.099Z" fill="#2C4942"/>
<rect x="694.259" y="165.919" width="41.1733" height="41.1733" stroke="#2C4942"/>
<path d="M714.839 216.433C715.959 216.433 716.979 216.613 717.899 216.973C718.819 217.313 719.599 217.823 720.239 218.503C720.899 219.163 721.399 219.973 721.739 220.933C722.099 221.893 722.279 222.983 722.279 224.203V230.683C722.279 231.963 722.099 233.093 721.739 234.073C721.379 235.033 720.869 235.843 720.209 236.503C719.549 237.143 718.759 237.633 717.839 237.973C716.939 238.293 715.939 238.453 714.839 238.453C713.739 238.453 712.729 238.293 711.809 237.973C710.909 237.633 710.129 237.143 709.469 236.503C708.809 235.843 708.299 235.033 707.939 234.073C707.579 233.093 707.399 231.963 707.399 230.683V224.203C707.399 222.983 707.569 221.893 707.909 220.933C708.269 219.973 708.769 219.163 709.409 218.503C710.069 217.823 710.859 217.313 711.779 216.973C712.699 216.613 713.719 216.433 714.839 216.433ZM714.839 235.813C715.599 235.813 716.259 235.683 716.819 235.423C717.399 235.163 717.879 234.803 718.259 234.343C718.639 233.883 718.919 233.343 719.099 232.723C719.299 232.083 719.399 231.393 719.399 230.653V224.233C719.399 223.493 719.299 222.813 719.099 222.193C718.919 221.553 718.639 221.003 718.259 220.543C717.879 220.083 717.399 219.723 716.819 219.463C716.259 219.203 715.599 219.073 714.839 219.073C714.079 219.073 713.409 219.203 712.829 219.463C712.269 219.723 711.799 220.083 711.419 220.543C711.039 221.003 710.749 221.553 710.549 222.193C710.369 222.813 710.279 223.493 710.279 224.233V230.653C710.279 231.393 710.369 232.083 710.549 232.723C710.749 233.343 711.039 233.883 711.419 234.343C711.799 234.803 712.269 235.163 712.829 235.423C713.409 235.683 714.079 235.813 714.839 235.813Z" fill="#2C4942"/>
<rect x="694.259" y="207.093" width="41.1733" height="41.1733" stroke="#2C4942"/>
<path d="M717.356 279.266H714.446V261.266L709.166 264.326V261.566L715.196 257.876H717.356V279.266Z" fill="#2C4942"/>
<rect x="694.259" y="248.266" width="41.1733" height="41.1733" stroke="#2C4942"/>
<path d="M714.839 298.779C715.959 298.779 716.979 298.959 717.899 299.319C718.819 299.659 719.599 300.169 720.239 300.849C720.899 301.509 721.399 302.319 721.739 303.279C722.099 304.239 722.279 305.329 722.279 306.549V313.029C722.279 314.309 722.099 315.439 721.739 316.419C721.379 317.379 720.869 318.189 720.209 318.849C719.549 319.489 718.759 319.979 717.839 320.319C716.939 320.639 715.939 320.799 714.839 320.799C713.739 320.799 712.729 320.639 711.809 320.319C710.909 319.979 710.129 319.489 709.469 318.849C708.809 318.189 708.299 317.379 707.939 316.419C707.579 315.439 707.399 314.309 707.399 313.029V306.549C707.399 305.329 707.569 304.239 707.909 303.279C708.269 302.319 708.769 301.509 709.409 300.849C710.069 300.169 710.859 299.659 711.779 299.319C712.699 298.959 713.719 298.779 714.839 298.779ZM714.839 318.159C715.599 318.159 716.259 318.029 716.819 317.769C717.399 317.509 717.879 317.149 718.259 316.689C718.639 316.229 718.919 315.689 719.099 315.069C719.299 314.429 719.399 313.739 719.399 312.999V306.579C719.399 305.839 719.299 305.159 719.099 304.539C718.919 303.899 718.639 303.349 718.259 302.889C717.879 302.429 717.399 302.069 716.819 301.809C716.259 301.549 715.599 301.419 714.839 301.419C714.079 301.419 713.409 301.549 712.829 301.809C712.269 302.069 711.799 302.429 711.419 302.889C711.039 303.349 710.749 303.899 710.549 304.539C710.369 305.159 710.279 305.839 710.279 306.579V312.999C710.279 313.739 710.369 314.429 710.549 315.069C710.749 315.689 711.039 316.229 711.419 316.689C711.799 317.149 712.269 317.509 712.829 317.769C713.409 318.029 714.079 318.159 714.839 318.159Z" fill="#2C4942"/>
<rect x="694.259" y="289.439" width="41.1733" height="41.1733" stroke="#2C4942"/>
<path d="M717.536 361.613H714.626V343.613L709.346 346.673V343.913L715.376 340.223H717.536V361.613Z" fill="#2C4942"/>
<rect x="694.259" y="330.613" width="41.1733" height="41.1733" stroke="#2C4942"/>
<path d="M714.839 381.126C715.959 381.126 716.979 381.306 717.899 381.666C718.819 382.006 719.599 382.516 720.239 383.196C720.899 383.856 721.399 384.666 721.739 385.626C722.099 386.586 722.279 387.676 722.279 388.896V395.376C722.279 396.656 722.099 397.786 721.739 398.766C721.379 399.726 720.869 400.536 720.209 401.196C719.549 401.836 718.759 402.326 717.839 402.666C716.939 402.986 715.939 403.146 714.839 403.146C713.739 403.146 712.729 402.986 711.809 402.666C710.909 402.326 710.129 401.836 709.469 401.196C708.809 400.536 708.299 399.726 707.939 398.766C707.579 397.786 707.399 396.656 707.399 395.376V388.896C707.399 387.676 707.569 386.586 707.909 385.626C708.269 384.666 708.769 383.856 709.409 383.196C710.069 382.516 710.859 382.006 711.779 381.666C712.699 381.306 713.719 381.126 714.839 381.126ZM714.839 400.506C715.599 400.506 716.259 400.376 716.819 400.116C717.399 399.856 717.879 399.496 718.259 399.036C718.639 398.576 718.919 398.036 719.099 397.416C719.299 396.776 719.399 396.086 719.399 395.346V388.926C719.399 388.186 719.299 387.506 719.099 386.886C718.919 386.246 718.639 385.696 718.259 385.236C717.879 384.776 717.399 384.416 716.819 384.156C716.259 383.896 715.599 383.766 714.839 383.766C714.079 383.766 713.409 383.896 712.829 384.156C712.269 384.416 711.799 384.776 711.419 385.236C711.039 385.696 710.749 386.246 710.549 386.886C710.369 387.506 710.279 388.186 710.279 388.926V395.346C710.279 396.086 710.369 396.776 710.549 397.416C710.749 398.036 711.039 398.576 711.419 399.036C711.799 399.496 712.269 399.856 712.829 400.116C713.409 400.376 714.079 400.506 714.839 400.506Z" fill="#2C4942"/>
<rect x="694.259" y="371.786" width="41.1733" height="41.1733" stroke="#2C4942"/>
<path d="M791.111 175.619H804.191V178.259H793.871V184.439C794.291 184.019 794.851 183.659 795.551 183.359C796.271 183.039 797.151 182.879 798.191 182.879C799.111 182.879 799.981 183.039 800.801 183.359C801.621 183.659 802.341 184.109 802.961 184.709C803.581 185.309 804.071 186.049 804.431 186.929C804.811 187.789 805.001 188.779 805.001 189.899V190.229C805.001 191.269 804.821 192.219 804.461 193.079C804.101 193.939 803.591 194.679 802.931 195.299C802.291 195.919 801.511 196.409 800.591 196.769C799.671 197.109 798.651 197.279 797.531 197.279C796.311 197.279 795.241 197.109 794.321 196.769C793.421 196.409 792.661 195.949 792.041 195.389C791.441 194.809 790.971 194.149 790.631 193.409C790.311 192.649 790.121 191.859 790.061 191.039H792.911C792.971 191.399 793.081 191.789 793.241 192.209C793.421 192.629 793.691 193.019 794.051 193.379C794.411 193.739 794.871 194.039 795.431 194.279C796.011 194.519 796.711 194.639 797.531 194.639C798.211 194.639 798.831 194.529 799.391 194.309C799.951 194.089 800.431 193.789 800.831 193.409C801.251 193.009 801.571 192.539 801.791 191.999C802.011 191.459 802.121 190.869 802.121 190.229V189.929C802.121 188.569 801.701 187.499 800.861 186.719C800.021 185.919 798.911 185.519 797.531 185.519C796.871 185.519 796.301 185.599 795.821 185.759C795.341 185.919 794.941 186.109 794.621 186.329C794.321 186.549 794.081 186.769 793.901 186.989C793.721 187.209 793.591 187.379 793.511 187.499H791.111V175.619Z" fill="#2C4942"/>
<rect x="776.605" y="165.919" width="41.1733" height="41.1733" stroke="#2C4942"/>
<path d="M799.702 238.093H796.792V220.093L791.512 223.153V220.393L797.542 216.703H799.702V238.093Z" fill="#2C4942"/>
<rect x="776.605" y="207.093" width="41.1733" height="41.1733" stroke="#2C4942"/>
<path d="M797.186 257.606C798.306 257.606 799.326 257.786 800.246 258.146C801.166 258.486 801.946 258.996 802.586 259.676C803.246 260.336 803.746 261.146 804.086 262.106C804.446 263.066 804.626 264.156 804.626 265.376V271.856C804.626 273.136 804.446 274.266 804.086 275.246C803.726 276.206 803.216 277.016 802.556 277.676C801.896 278.316 801.106 278.806 800.186 279.146C799.286 279.466 798.286 279.626 797.186 279.626C796.086 279.626 795.076 279.466 794.156 279.146C793.256 278.806 792.476 278.316 791.816 277.676C791.156 277.016 790.646 276.206 790.286 275.246C789.926 274.266 789.746 273.136 789.746 271.856V265.376C789.746 264.156 789.916 263.066 790.256 262.106C790.616 261.146 791.116 260.336 791.756 259.676C792.416 258.996 793.206 258.486 794.126 258.146C795.046 257.786 796.066 257.606 797.186 257.606ZM797.186 276.986C797.946 276.986 798.606 276.856 799.166 276.596C799.746 276.336 800.226 275.976 800.606 275.516C800.986 275.056 801.266 274.516 801.446 273.896C801.646 273.256 801.746 272.566 801.746 271.826V265.406C801.746 264.666 801.646 263.986 801.446 263.366C801.266 262.726 800.986 262.176 800.606 261.716C800.226 261.256 799.746 260.896 799.166 260.636C798.606 260.376 797.946 260.246 797.186 260.246C796.426 260.246 795.756 260.376 795.176 260.636C794.616 260.896 794.146 261.256 793.766 261.716C793.386 262.176 793.096 262.726 792.896 263.366C792.716 263.986 792.626 264.666 792.626 265.406V271.826C792.626 272.566 792.716 273.256 792.896 273.896C793.096 274.516 793.386 275.056 793.766 275.516C794.146 275.976 794.616 276.336 795.176 276.596C795.756 276.856 796.426 276.986 797.186 276.986Z" fill="#2C4942"/>
<rect x="776.605" y="248.266" width="41.1733" height="41.1733" stroke="#2C4942"/>
<path d="M797.186 298.779C798.306 298.779 799.326 298.959 800.246 299.319C801.166 299.659 801.946 300.169 802.586 300.849C803.246 301.509 803.746 302.319 804.086 303.279C804.446 304.239 804.626 305.329 804.626 306.549V313.029C804.626 314.309 804.446 315.439 804.086 316.419C803.726 317.379 803.216 318.189 802.556 318.849C801.896 319.489 801.106 319.979 800.186 320.319C799.286 320.639 798.286 320.799 797.186 320.799C796.086 320.799 795.076 320.639 794.156 320.319C793.256 319.979 792.476 319.489 791.816 318.849C791.156 318.189 790.646 317.379 790.286 316.419C789.926 315.439 789.746 314.309 789.746 313.029V306.549C789.746 305.329 789.916 304.239 790.256 303.279C790.616 302.319 791.116 301.509 791.756 300.849C792.416 300.169 793.206 299.659 794.126 299.319C795.046 298.959 796.066 298.779 797.186 298.779ZM797.186 318.159C797.946 318.159 798.606 318.029 799.166 317.769C799.746 317.509 800.226 317.149 800.606 316.689C800.986 316.229 801.266 315.689 801.446 315.069C801.646 314.429 801.746 313.739 801.746 312.999V306.579C801.746 305.839 801.646 305.159 801.446 304.539C801.266 303.899 800.986 303.349 800.606 302.889C800.226 302.429 799.746 302.069 799.166 301.809C798.606 301.549 797.946 301.419 797.186 301.419C796.426 301.419 795.756 301.549 795.176 301.809C794.616 302.069 794.146 302.429 793.766 302.889C793.386 303.349 793.096 303.899 792.896 304.539C792.716 305.159 792.626 305.839 792.626 306.579V312.999C792.626 313.739 792.716 314.429 792.896 315.069C793.096 315.689 793.386 316.229 793.766 316.689C794.146 317.149 794.616 317.509 795.176 317.769C795.756 318.029 796.426 318.159 797.186 318.159Z" fill="#2C4942"/>
<rect x="776.605" y="289.439" width="41.1733" height="41.1733" stroke="#2C4942"/>
<path d="M799.882 361.613H796.972V343.613L791.692 346.673V343.913L797.722 340.223H799.882V361.613Z" fill="#2C4942"/>
<rect x="776.605" y="330.613" width="41.1733" height="41.1733" stroke="#2C4942"/>
<path d="M797.186 381.126C798.306 381.126 799.326 381.306 800.246 381.666C801.166 382.006 801.946 382.516 802.586 383.196C803.246 383.856 803.746 384.666 804.086 385.626C804.446 386.586 804.626 387.676 804.626 388.896V395.376C804.626 396.656 804.446 397.786 804.086 398.766C803.726 399.726 803.216 400.536 802.556 401.196C801.896 401.836 801.106 402.326 800.186 402.666C799.286 402.986 798.286 403.146 797.186 403.146C796.086 403.146 795.076 402.986 794.156 402.666C793.256 402.326 792.476 401.836 791.816 401.196C791.156 400.536 790.646 399.726 790.286 398.766C789.926 397.786 789.746 396.656 789.746 395.376V388.896C789.746 387.676 789.916 386.586 790.256 385.626C790.616 384.666 791.116 383.856 791.756 383.196C792.416 382.516 793.206 382.006 794.126 381.666C795.046 381.306 796.066 381.126 797.186 381.126ZM797.186 400.506C797.946 400.506 798.606 400.376 799.166 400.116C799.746 399.856 800.226 399.496 800.606 399.036C800.986 398.576 801.266 398.036 801.446 397.416C801.646 396.776 801.746 396.086 801.746 395.346V388.926C801.746 388.186 801.646 387.506 801.446 386.886C801.266 386.246 800.986 385.696 800.606 385.236C800.226 384.776 799.746 384.416 799.166 384.156C798.606 383.896 797.946 383.766 797.186 383.766C796.426 383.766 795.756 383.896 795.176 384.156C794.616 384.416 794.146 384.776 793.766 385.236C793.386 385.696 793.096 386.246 792.896 386.886C792.716 387.506 792.626 388.186 792.626 388.926V395.346C792.626 396.086 792.716 396.776 792.896 397.416C793.096 398.036 793.386 398.576 793.766 399.036C794.146 399.496 794.616 399.856 795.176 400.116C795.756 400.376 796.426 400.506 797.186 400.506Z" fill="#2C4942"/>
<rect x="776.605" y="371.786" width="41.1733" height="41.1733" stroke="#2C4942"/>
<rect x="612.912" y="208.093" width="203.867" height="203.866" stroke="#2C4942" stroke-width="2"/>
</svg>
